<svg width="50" height="50" viewBox="0 0 50 50" fill="none" xmlns="http://www.w3.org/2000/svg">
<path d="M12.1049 4.41675C9.95173 4.9937 8.40731 6.72352 7.66797 8.71813C6.92864 10.7127 6.88052 13.0459 7.5122 15.3875C8.14388 17.729 9.36006 19.7256 11.0033 21.0818C12.6466 22.438 14.8527 23.1607 17.0059 22.5838C19.1591 22.0068 20.7035 20.277 21.4428 18.2824C22.1822 16.2878 22.2303 13.9546 21.5986 11.613C20.9669 9.2715 19.7508 7.2749 18.1075 5.91871C16.4642 4.56252 14.2581 3.8398 12.1049 4.41675ZM21.5986 11.613C22.2303 13.9546 23.4465 15.9512 25.0898 17.3073C26.733 18.6635 28.9411 19.3857 31.0923 18.8093C33.2455 18.2324 34.7899 16.5025 35.5293 14.5079C36.2686 12.5133 36.3167 10.1801 35.685 7.83859C35.0534 5.49706 33.8372 3.50046 32.1939 2.14427C30.5506 0.788075 28.3446 0.0653512 26.1914 0.642302C24.0381 1.21925 22.4937 2.94908 21.7544 4.94369C21.0151 6.9383 20.9669 9.2715 21.5986 11.613ZM13.194 8.45386C13.8219 8.28563 14.5991 8.41504 15.4695 9.12985C16.3313 9.84481 17.153 11.1311 17.5739 12.6914C17.9949 14.2518 17.9317 15.7773 17.5453 16.8246C17.1519 17.878 16.5446 18.3784 15.9168 18.5466C15.2889 18.7149 14.5117 18.5855 13.6413 17.8707C12.7796 17.1557 11.9578 15.8694 11.5369 14.3091C11.116 12.7487 11.1791 11.2232 11.5655 10.1759C11.9589 9.12247 12.5662 8.62209 13.194 8.45386ZM27.2805 4.67942C27.9083 4.51118 28.6855 4.64059 29.5559 5.35541C30.4177 6.07036 31.2394 7.35665 31.6603 8.917C32.0813 10.4773 32.0181 12.0029 31.6317 13.0501C31.2383 14.1036 30.6311 14.604 30.0032 14.7722C29.3754 14.9404 28.5982 14.811 27.7278 14.0962C26.866 13.3813 26.0442 12.095 25.6233 10.5346C25.2024 8.97427 25.2655 7.44871 25.6519 6.40147C26.0453 5.34803 26.6526 4.84765 27.2805 4.67942ZM5.85506 21.2427C3.70185 21.8196 2.15743 23.5494 1.4181 25.5441C0.678765 27.5387 0.630646 29.8719 1.26232 32.2134C1.894 34.5549 3.11018 36.5515 4.75347 37.9077C6.39675 39.2639 8.6028 39.9866 10.756 39.4097C12.9092 38.8327 14.4536 37.1029 15.193 35.1083C15.9323 33.1137 15.9804 30.7805 15.3487 28.439C14.7171 26.0974 13.5009 24.1008 11.8576 22.7446C10.2143 21.3884 8.00827 20.6657 5.85506 21.2427ZM40.0649 12.0762C37.9117 12.6531 36.3673 14.3829 35.628 16.3776C34.8886 18.3722 34.8405 20.7054 35.4722 23.0469C36.1039 25.3884 37.3201 27.385 38.9633 28.7412C40.6066 30.0974 42.8127 30.8201 44.9659 30.2432C47.1191 29.6662 48.6635 27.9364 49.4028 25.9418C50.1422 23.9472 50.1903 21.614 49.5586 19.2725C48.9269 16.9309 47.7108 14.9343 46.0675 13.5781C44.4242 12.2219 42.2181 11.4992 40.0649 12.0762ZM6.94416 25.2798C7.57201 25.1116 8.34921 25.241 9.2196 25.9558C10.0814 26.6707 10.9031 27.957 11.3241 29.5174C11.745 31.0777 11.6818 32.6033 11.2954 33.6505C10.9021 34.704 10.2948 35.2043 9.66691 35.3726C9.03906 35.5408 8.26186 35.4114 7.39147 34.6966C6.53022 33.9836 5.70795 32.6953 5.28701 31.135C4.86608 29.5746 4.92924 28.0491 5.31565 27.0018C5.70901 25.9484 6.31631 25.448 6.94416 25.2798ZM41.154 16.1133C41.7819 15.945 42.5591 16.0745 43.4295 16.7893C44.2913 17.5042 45.113 18.7905 45.5339 20.3509C45.9549 21.9112 45.8917 23.4368 45.5053 24.484C45.1119 25.5375 44.5046 26.0378 43.8768 26.2061C43.2489 26.3743 42.4717 26.2449 41.6013 25.5301C40.7395 24.8151 39.9178 23.5288 39.4969 21.9685C39.0759 20.4081 39.1391 18.8826 39.5255 17.8353C39.9189 16.7819 40.5262 16.2815 41.154 16.1133ZM25.1382 24.7336C22.4557 25.4524 21.0553 27.6999 20.5495 29.4804C20.0498 31.2593 19.8305 32.6861 19.4389 33.3624C19.2165 33.7618 17.4723 35.0149 15.7272 36.5928C14.855 37.3828 14.0215 38.3486 13.4481 39.6385C12.8687 40.9301 12.6799 42.55 13.1226 44.1911C14.1682 48.0667 18.2081 50.4041 22.0718 49.3688C23.8145 48.9018 25.4811 47.8492 27.1259 46.8674C28.7755 45.8712 30.5837 44.9192 30.5837 44.9192C30.5837 44.9192 32.6271 44.8392 34.5504 44.8736C36.4695 44.9005 38.4411 44.9783 40.1838 44.5113C44.0475 43.4761 46.3666 39.4348 45.3211 35.5592C44.8887 33.9564 43.9037 32.649 42.7668 31.8497C41.6322 31.0434 40.4292 30.6796 39.2807 30.4137C36.9798 29.8831 34.7729 29.5653 34.4088 29.3512C33.7968 29.0022 32.8978 27.8297 31.5561 26.5356C30.2148 25.2348 27.8347 24.0111 25.1382 24.7336ZM26.2273 28.7708C27.5554 28.4149 27.7895 28.6985 28.6572 29.5396C29.5305 30.377 30.4392 31.9538 32.2961 33.0298C34.4028 34.2402 36.5977 34.0417 38.345 34.4479C39.2197 34.6508 39.9204 34.9284 40.3838 35.2544C40.8447 35.579 41.1025 35.919 41.2953 36.6335C41.7527 38.3291 40.784 40.0173 39.0936 40.4702C38.51 40.6266 36.5107 40.6861 34.6238 40.6506C32.7386 40.6211 31.1356 40.4381 29.4935 40.8781C27.8514 41.3181 26.5566 42.2775 24.9404 43.2452C23.3258 44.219 21.5661 45.1667 20.9825 45.3231C19.2921 45.776 17.6046 44.7996 17.1472 43.104C16.9277 42.2905 16.984 41.8274 17.207 41.3261C17.4305 40.8268 17.9368 40.2561 18.5825 39.674C19.8727 38.5058 21.8758 37.6444 23.1161 35.4831C24.1898 33.6002 24.1599 31.7294 24.4907 30.5802C24.8115 29.4337 24.8789 29.1234 26.2231 28.7632L26.2273 28.7708Z" fill="#D29839"/>
</svg>
